<svg width="97" height="17" viewBox="0 0 97 17" fill="none" xmlns="http://www.w3.org/2000/svg">
<path fill-rule="evenodd" clip-rule="evenodd" d="M8.71124 0.556132C8.81333 0.340824 9.02988 0.203735 9.26783 0.203735C9.50578 0.203735 9.72232 0.340824 9.82442 0.556132L12.003 5.15993C12.0631 5.28673 12.1833 5.37441 12.3225 5.39212L17.3746 6.04175C17.6105 6.0718 17.8081 6.23565 17.8814 6.46207C17.9551 6.68808 17.8917 6.93673 17.7183 7.09976L14.0128 10.5949C13.9107 10.6908 13.865 10.8324 13.891 10.9704L14.8345 15.976C14.8786 16.2098 14.7839 16.4481 14.5912 16.5877C14.399 16.7277 14.1429 16.7441 13.9342 16.6301L9.46543 14.1856C9.34234 14.1185 9.19332 14.1185 9.07022 14.1856L4.60145 16.6301C4.39273 16.7441 4.13667 16.7277 3.94442 16.5877C3.75175 16.4481 3.65706 16.2098 3.70111 15.976L4.64468 10.9704C4.67062 10.8324 4.62492 10.6908 4.52282 10.5949L0.81731 7.09976C0.643994 6.93673 0.58059 6.68808 0.654281 6.46207C0.72756 6.23565 0.925166 6.0718 1.16106 6.04175L6.21318 5.39212C6.35232 5.37441 6.47253 5.28673 6.53264 5.15993L8.71124 0.556132Z" fill="#F9CC2D"/>
<path fill-rule="evenodd" clip-rule="evenodd" d="M28.3272 0.556132C28.4293 0.340824 28.6458 0.203735 28.8838 0.203735C29.1217 0.203735 29.3383 0.340824 29.4404 0.556132L31.619 5.15993C31.6791 5.28673 31.7993 5.37441 31.9384 5.39212L36.9906 6.04175C37.2265 6.0718 37.4241 6.23565 37.4973 6.46207C37.571 6.68808 37.5076 6.93673 37.3343 7.09976L33.6288 10.5949C33.5267 10.6908 33.481 10.8324 33.5069 10.9704L34.4505 15.976C34.4946 16.2098 34.3999 16.4481 34.2072 16.5877C34.015 16.7277 33.7589 16.7441 33.5502 16.6301L29.0814 14.1856C28.9583 14.1185 28.8093 14.1185 28.6862 14.1856L24.2174 16.6301C24.0087 16.7441 23.7526 16.7277 23.5604 16.5877C23.3677 16.4481 23.273 16.2098 23.3171 15.976L24.2606 10.9704C24.2866 10.8324 24.2409 10.6908 24.1388 10.5949L20.4333 7.09976C20.26 6.93673 20.1966 6.68808 20.2702 6.46207C20.3435 6.23565 20.5411 6.0718 20.777 6.04175L25.8291 5.39212C25.9683 5.37441 26.0885 5.28673 26.1486 5.15993L28.3272 0.556132Z" fill="#F9CC2D"/>
<path fill-rule="evenodd" clip-rule="evenodd" d="M47.9433 0.556132C48.0454 0.340824 48.2619 0.203735 48.4999 0.203735C48.7378 0.203735 48.9544 0.340824 49.0565 0.556132L51.2351 5.15993C51.2952 5.28673 51.4154 5.37441 51.5545 5.39212L56.6067 6.04175C56.8425 6.0718 57.0402 6.23565 57.1134 6.46207C57.1871 6.68808 57.1237 6.93673 56.9504 7.09976L53.2449 10.5949C53.1428 10.6908 53.0971 10.8324 53.123 10.9704L54.0666 15.976C54.1106 16.2098 54.016 16.4481 53.8233 16.5877C53.631 16.7277 53.375 16.7441 53.1663 16.6301L48.6975 14.1856C48.5744 14.1185 48.4254 14.1185 48.3023 14.1856L43.8335 16.6301C43.6248 16.7441 43.3687 16.7277 43.1765 16.5877C42.9838 16.4481 42.8891 16.2098 42.9332 15.976L43.8767 10.9704C43.9027 10.8324 43.857 10.6908 43.7549 10.5949L40.0494 7.09976C39.876 6.93673 39.8126 6.68808 39.8863 6.46207C39.9596 6.23565 40.1572 6.0718 40.3931 6.04175L45.4452 5.39212C45.5844 5.37441 45.7046 5.28673 45.7647 5.15993L47.9433 0.556132Z" fill="#F9CC2D"/>
<path fill-rule="evenodd" clip-rule="evenodd" d="M67.5594 0.556132C67.6615 0.340824 67.878 0.203735 68.116 0.203735C68.3539 0.203735 68.5705 0.340824 68.6726 0.556132L70.8512 5.15993C70.9113 5.28673 71.0315 5.37441 71.1706 5.39212L76.2227 6.04175C76.4586 6.0718 76.6562 6.23565 76.7295 6.46207C76.8032 6.68808 76.7398 6.93673 76.5665 7.09976L72.861 10.5949C72.7589 10.6908 72.7132 10.8324 72.7391 10.9704L73.6827 15.976C73.7267 16.2098 73.632 16.4481 73.4394 16.5877C73.2471 16.7277 72.9911 16.7441 72.7823 16.6301L68.3136 14.1856C68.1905 14.1185 68.0415 14.1185 67.9184 14.1856L63.4496 16.6301C63.2409 16.7441 62.9848 16.7277 62.7926 16.5877C62.5999 16.4481 62.5052 16.2098 62.5493 15.976L63.4928 10.9704C63.5188 10.8324 63.4731 10.6908 63.371 10.5949L59.6655 7.09976C59.4921 6.93673 59.4287 6.68808 59.5024 6.46207C59.5757 6.23565 59.7733 6.0718 60.0092 6.04175L65.0613 5.39212C65.2005 5.37441 65.3207 5.28673 65.3808 5.15993L67.5594 0.556132Z" fill="#F9CC2D"/>
<path fill-rule="evenodd" clip-rule="evenodd" d="M87.1753 0.556132C87.2774 0.340824 87.494 0.203735 87.7319 0.203735C87.9699 0.203735 88.1864 0.340824 88.2885 0.556132L90.4671 5.15993C90.5272 5.28673 90.6474 5.37441 90.7866 5.39212L95.8387 6.04175C96.0746 6.0718 96.2722 6.23565 96.3455 6.46207C96.4192 6.68808 96.3558 6.93673 96.1825 7.09976L92.4769 10.5949C92.3748 10.6908 92.3291 10.8324 92.3551 10.9704L93.2987 15.976C93.3427 16.2098 93.248 16.4481 93.0554 16.5877C92.8631 16.7277 92.607 16.7441 92.3983 16.6301L87.9295 14.1856C87.8065 14.1185 87.6574 14.1185 87.5343 14.1856L83.0656 16.6301C82.8568 16.7441 82.6008 16.7277 82.4085 16.5877C82.2159 16.4481 82.1212 16.2098 82.1652 15.976L83.1088 10.9704C83.1347 10.8324 83.089 10.6908 82.9869 10.5949L79.2814 7.09976C79.1081 6.93673 79.0447 6.68808 79.1184 6.46207C79.1917 6.23565 79.3893 6.0718 79.6252 6.04175L84.6773 5.39212C84.8164 5.37441 84.9366 5.28673 84.9967 5.15993L87.1753 0.556132Z" fill="#F9CC2D"/>
</svg>
