<svg width="22" height="22" viewBox="0 0 22 22" fill="none" xmlns="http://www.w3.org/2000/svg">
<path d="M13.3518 16.4135C13.7378 17.8538 12.883 19.3343 11.4426 19.7203C10.0023 20.1062 8.52176 19.2514 8.13582 17.8111M10.2023 5.36691C10.4761 4.87434 10.5663 4.27899 10.4089 3.69165C10.0873 2.49135 8.85352 1.77904 7.65322 2.10066C6.45292 2.42228 5.74061 3.65604 6.06223 4.85634C6.21961 5.44368 6.59539 5.91417 7.07878 6.20385M15.0122 8.70091C14.691 7.50199 13.8334 6.49942 12.628 5.91376C11.4227 5.3281 9.96834 5.20732 8.58497 5.578C7.2016 5.94867 6.00251 6.78043 5.25148 7.8903C4.50045 9.00017 4.259 10.2972 4.58025 11.4962C5.11176 13.4798 5.00855 15.0623 4.6729 16.2649C4.29034 17.6354 4.09906 18.3207 4.15073 18.4583C4.20985 18.6158 4.25262 18.659 4.40943 18.7197C4.54649 18.7728 5.12229 18.6185 6.27387 18.31L16.9524 15.4487C18.104 15.1401 18.6798 14.9858 18.772 14.8713C18.8774 14.7403 18.8928 14.6815 18.8653 14.5156C18.8413 14.3706 18.333 13.8727 17.3164 12.8771C16.4244 12.0035 15.5438 10.6846 15.0122 8.70091Z" stroke="#344054" stroke-width="1.8" stroke-linecap="round" stroke-linejoin="round"/>
</svg>
