<svg width="19" height="18" viewBox="0 0 19 18" fill="none" xmlns="http://www.w3.org/2000/svg">
<path d="M9.59998 1.5C11.4759 3.55376 12.542 6.21903 12.6 9C12.542 11.781 11.4759 14.4462 9.59998 16.5M9.59998 1.5C7.72402 3.55376 6.65791 6.21903 6.59998 9C6.65791 11.781 7.72402 14.4462 9.59998 16.5M9.59998 1.5C5.45784 1.5 2.09998 4.85786 2.09998 9C2.09998 13.1421 5.45784 16.5 9.59998 16.5M9.59998 1.5C13.7421 1.5 17.1 4.85786 17.1 9C17.1 13.1421 13.7421 16.5 9.59998 16.5M2.47499 6.75H16.725M2.47498 11.25H16.725" stroke="#344054" stroke-width="1.5" stroke-linecap="round" stroke-linejoin="round"/>
</svg>
