<svg width="30" height="30" viewBox="0 0 30 30" fill="none" xmlns="http://www.w3.org/2000/svg">
<path d="M22 30H8C3.589 30 0 26.411 0 22V8C0 3.589 3.589 0 8 0H22C26.411 0 30 3.589 30 8V22C30 26.411 26.411 30 22 30ZM8 2C4.691 2 2 4.691 2 8V22C2 25.309 4.691 28 8 28H22C25.309 28 28 25.309 28 22V8C28 4.691 25.309 2 22 2H8Z" fill="#70607E"/>
<path d="M16 9.00098C16 8.44869 15.5523 8.00098 15 8.00098C14.4477 8.00098 14 8.44869 14 9.00098V21.001C14 21.5533 14.4477 22.001 15 22.001C15.5523 22.001 16 21.5533 16 21.001V9.00098Z" fill="#70607E"/>
<path d="M21 14.001H9C8.44772 14.001 8 14.4487 8 15.001C8 15.5533 8.44772 16.001 9 16.001H21C21.5523 16.001 22 15.5533 22 15.001C22 14.4487 21.5523 14.001 21 14.001Z" fill="#70607E"/>
</svg>
