<svg width="110" height="30" viewBox="0 0 110 30" fill="none" xmlns="http://www.w3.org/2000/svg">
<path d="M13.8005 17.7838L10.0634 19.9262V24.1161L14.0128 21.9816V29.3421H17.6878V20.0442C17.6878 18.0445 15.5323 16.7912 13.8005 17.7838Z" fill="#FF5700"/>
<path d="M12.3315 13.689L10.1942 9.94336H6.01392L8.1435 13.9018H0.799988V17.5854H10.0764C12.0715 17.5854 13.3219 15.4249 12.3315 13.689Z" fill="#FF5700"/>
<path d="M16.4178 12.2164L20.1549 10.0741V5.88419L16.2055 8.01869V0.658203H12.5305V9.95607C12.5305 11.9558 14.686 13.209 16.4178 12.2164Z" fill="#FF5700"/>
<path d="M29.4186 12.416H20.1422C18.1471 12.416 16.8967 14.5765 17.8871 16.3124L20.0244 20.0581H24.2047L22.0751 16.0996H29.4186V12.416Z" fill="#FF5700"/>
<path d="M47.1048 8.25015C46.4616 7.54029 45.6843 7.00183 44.7728 6.63475C43.8609 6.26751 42.8437 6.08398 41.7205 6.08398C40.2877 6.08398 39.0016 6.39409 37.8622 7.01414C36.7226 7.63434 35.8313 8.5724 35.1884 9.82878C34.5451 11.0855 34.2238 12.6598 34.2238 14.5525C34.2238 15.8742 34.3906 17.049 34.7244 18.077C35.0579 19.1048 35.5425 19.9738 36.1774 20.6836C36.8122 21.3933 37.5895 21.936 38.5094 22.3112C39.4289 22.6863 40.4751 22.8741 41.6472 22.8741C42.8029 22.8741 43.8449 22.6906 44.7728 22.3235C45.7008 21.9562 46.486 21.4178 47.1293 20.7081C47.7722 19.9982 48.2647 19.1214 48.6066 18.077C48.9485 17.0329 49.1194 15.8417 49.1194 14.5036C49.1194 13.1494 48.9443 11.9459 48.5944 10.8934C48.2442 9.8409 47.7477 8.95982 47.1048 8.25015ZM45.5786 17.514C45.318 18.2648 44.972 18.8441 44.5408 19.2517C44.1093 19.6599 43.6453 19.9493 43.1489 20.1207C42.6522 20.2919 42.168 20.3776 41.696 20.3776C41.1588 20.3776 40.6338 20.2839 40.121 20.0962C39.6082 19.9087 39.148 19.5906 38.7413 19.1416C38.3342 18.6931 38.0046 18.0934 37.7524 17.3427C37.4998 16.5924 37.3739 15.6539 37.3739 14.528C37.3739 13.3042 37.512 12.3091 37.789 11.542C38.0656 10.7752 38.4239 10.1837 38.8634 9.76755C39.3029 9.35155 39.7707 9.06621 40.2675 8.91093C40.7639 8.75611 41.2321 8.67845 41.6716 8.67845C42.4854 8.67845 43.218 8.88647 43.8693 9.30244C44.5202 9.7186 45.033 10.3672 45.4077 11.2483C45.782 12.1294 45.9693 13.2638 45.9693 14.6503C45.9693 15.8092 45.8388 16.7636 45.5786 17.514Z" fill="#170056"/>
<path d="M62.2451 12.5092C62.0742 11.9463 61.8258 11.4323 61.5003 10.9672C61.1745 10.5023 60.7472 10.1313 60.2184 9.85366C59.6892 9.57638 59.0256 9.4375 58.2282 9.4375C57.4792 9.4375 56.8077 9.58444 56.2137 9.87812C55.6192 10.1718 55.1186 10.6369 54.7119 11.2732C54.3048 11.9095 53.9874 12.7582 53.7596 13.8186H53.3445L53.4177 9.75579H50.8293V22.5563H53.9061V16.9024C53.9221 16.0053 54.0564 15.1935 54.309 14.4672C54.5612 13.7414 54.9233 13.1578 55.3956 12.7172C55.8676 12.2768 56.4456 12.0564 57.1294 12.0564C57.7314 12.0564 58.1954 12.2117 58.5212 12.5215C58.8467 12.8316 59.0867 13.211 59.2416 13.6595C59.3961 14.1085 59.4896 14.5612 59.5224 15.018C59.5549 15.4748 59.5712 15.8665 59.5712 16.1928V22.5563H62.6724V15.8011C62.6724 15.3117 62.6439 14.7816 62.587 14.2103C62.5297 13.6393 62.4161 13.0721 62.2451 12.5092Z" fill="#170056"/>
<path d="M72.9885 19.1665C72.8501 19.4357 72.6711 19.6724 72.4513 19.8763C72.2316 20.0805 71.9508 20.2434 71.6089 20.3659C71.267 20.4882 70.86 20.5494 70.3879 20.5494C69.2807 20.5494 68.4181 20.2028 67.7996 19.5091C67.2453 18.8882 66.9416 17.9737 66.8838 16.7702L75.8334 16.6823C75.9146 15.5074 75.8372 14.4715 75.6014 13.5738C75.3652 12.6766 74.999 11.918 74.5025 11.2977C74.0058 10.6778 73.3873 10.2127 72.6467 9.90258C71.9057 9.59278 71.0717 9.4375 70.1438 9.4375C69.1506 9.4375 68.2673 9.6089 67.4943 9.9515C66.7209 10.2941 66.0658 10.7799 65.5286 11.4078C64.9914 12.0361 64.5843 12.7704 64.3077 13.6106C64.0307 14.4511 63.8925 15.377 63.8925 16.3886C63.8925 17.4002 64.0349 18.3061 64.3198 19.1052C64.6045 19.905 65.0238 20.586 65.5774 21.149C66.1307 21.7119 66.8064 22.1402 67.6042 22.434C68.4016 22.7277 69.3215 22.8745 70.3635 22.8745C71.2262 22.8745 71.9752 22.7804 72.6101 22.5931C73.2449 22.4056 73.7943 22.1364 74.2583 21.7854C74.7223 21.4348 75.0965 21.0143 75.3816 20.525C75.6662 20.0354 75.8738 19.497 76.0043 18.9096L73.2938 18.3466C73.2286 18.6242 73.1267 18.8972 72.9885 19.1665ZM68.4222 12.4114C68.9186 12.0607 69.5004 11.8851 70.1682 11.8851C70.7542 11.8851 71.2751 12.032 71.731 12.3257C72.1866 12.6193 72.5326 13.06 72.7688 13.6474C72.9125 14.0054 72.9936 14.4251 73.0135 14.9045L66.9855 14.9589C67.0524 14.5843 67.148 14.2401 67.2745 13.9288C67.5432 13.268 67.9255 12.7624 68.4222 12.4114Z" fill="#170056"/>
<path d="M94.7823 6.40234L92.0718 19.8393H91.852L88.8729 6.40234H84.8927L81.9135 19.8393H81.6938L79.0077 6.40234H75.6624L79.4228 22.5561H83.8426L86.7241 9.14357H86.9439L89.8253 22.5561H94.1474L97.9812 6.40234H94.7823Z" fill="#170056"/>
<path d="M107.09 18.3466C107.025 18.6242 106.923 18.8972 106.785 19.1665C106.646 19.4357 106.467 19.6724 106.247 19.8763C106.028 20.0805 105.747 20.2434 105.405 20.3659C105.063 20.4882 104.656 20.5494 104.184 20.5494C103.077 20.5494 102.214 20.2028 101.596 19.5091C101.041 18.8882 100.738 17.9737 100.68 16.7702L109.629 16.6823C109.711 15.5074 109.633 14.4715 109.397 13.5738C109.161 12.6766 108.795 11.918 108.298 11.2977C107.802 10.6778 107.183 10.2127 106.443 9.90258C105.702 9.59278 104.868 9.4375 103.94 9.4375C102.947 9.4375 102.063 9.6089 101.29 9.9515C100.517 10.2941 99.8618 10.7799 99.3246 11.4078C98.7873 12.0361 98.3802 12.7704 98.1036 13.6106C97.8266 14.4511 97.6885 15.377 97.6885 16.3886C97.6885 17.4002 97.8308 18.3061 98.1158 19.1052C98.4005 19.905 98.8198 20.586 99.3734 21.149C99.9266 21.7119 100.602 22.1402 101.4 22.434C102.198 22.7277 103.117 22.8745 104.159 22.8745C105.022 22.8745 105.771 22.7804 106.406 22.5931C107.041 22.4056 107.59 22.1364 108.054 21.7854C108.518 21.4348 108.892 21.0143 109.178 20.525C109.462 20.0354 109.67 19.497 109.8 18.9096L107.09 18.3466ZM102.218 12.4114C102.715 12.0607 103.296 11.8851 103.964 11.8851C104.55 11.8851 105.071 12.032 105.527 12.3257C105.983 12.6193 106.329 13.06 106.565 13.6474C106.709 14.0054 106.79 14.4251 106.81 14.9045L100.782 14.9589C100.848 14.5843 100.944 14.2401 101.071 13.9288C101.339 13.268 101.721 12.7624 102.218 12.4114Z" fill="#170056"/>
</svg>
