<svg width="30" height="31" viewBox="0 0 30 31" fill="none" xmlns="http://www.w3.org/2000/svg">
<path d="M15 0.23999C12.0333 0.23999 9.13319 1.11972 6.66645 2.76795C4.19972 4.41617 2.27713 6.75885 1.14181 9.49974C0.00649929 12.2406 -0.290551 15.2566 0.288227 18.1663C0.867006 21.0761 2.29562 23.7488 4.3934 25.8466C6.49119 27.9444 9.16393 29.373 12.0736 29.9518C14.9834 30.5305 17.9994 30.2335 20.7403 29.0982C23.4811 27.9629 25.8238 26.0403 27.472 23.5735C29.1203 21.1068 30 18.2067 30 15.24C30 11.2617 28.4196 7.44643 25.6066 4.63339C22.7936 1.82034 18.9782 0.23999 15 0.23999ZM23.3333 24.22C22.984 23.7028 22.5855 23.2205 22.1433 22.78C21.0966 21.726 19.8297 20.9166 18.4335 20.4098C17.0372 19.9029 15.5462 19.7111 14.0671 19.848C12.588 19.985 11.1575 20.4474 9.87813 21.2021C8.59872 21.9568 7.50205 22.9851 6.66667 24.2133C4.86472 22.5399 3.60877 20.3624 3.06258 17.9647C2.51638 15.5669 2.70529 13.0603 3.60467 10.7715C4.50405 8.48273 6.07216 6.51804 8.10457 5.13359C10.137 3.74914 12.5394 3.00916 14.9985 3.01015C17.4576 3.01113 19.8594 3.75303 21.8907 5.13911C23.922 6.52519 25.4886 8.49114 26.3861 10.7806C27.2836 13.0701 27.4705 15.5769 26.9224 17.9742C26.3743 20.3715 25.1166 22.548 23.3133 24.22H23.3333Z" fill="#70607E"/>
<path d="M15.0002 6.32664C14.3041 6.3262 13.6147 6.46299 12.9715 6.72918C12.3282 6.99538 11.7438 7.38576 11.2516 7.87799C10.7593 8.37023 10.3689 8.95467 10.1027 9.5979C9.83655 10.2411 9.69976 10.9305 9.7002 11.6266V13.7633C9.7002 15.1681 10.2582 16.5153 11.2516 17.5086C12.2449 18.5019 13.5921 19.06 14.9969 19.06C16.4016 19.06 17.7489 18.5019 18.7422 17.5086C19.7355 16.5153 20.2935 15.1681 20.2935 13.7633V11.6266C20.294 10.9311 20.1574 10.2422 19.8916 9.59944C19.6258 8.95665 19.2361 8.3725 18.7445 7.88035C18.253 7.3882 17.6693 6.99769 17.0269 6.7311C16.3844 6.46451 15.6958 6.32708 15.0002 6.32664Z" fill="#70607E"/>
</svg>
