<svg width="17" height="17" viewBox="0 0 17 17" fill="none" xmlns="http://www.w3.org/2000/svg">
<path d="M16.032 3.67822C15.7312 2.31962 14.4141 1.07498 13.0517 0.810453C12.2218 0.644618 9.90602 0.439626 8.37502 0.455568C6.8439 0.438716 4.52823 0.643053 3.69831 0.809568C2.33592 1.07495 1.01887 2.3195 0.719443 3.6782C0.546691 4.50313 0.378189 5.62558 0.375732 7.15735C0.378188 8.68848 0.546699 9.81148 0.719443 10.6368C1.0203 11.9954 2.33738 13.24 3.69974 13.5046C4.14781 13.5939 5.02896 13.6952 5.98613 13.7664C6.09449 13.9365 6.212 14.1178 6.33889 14.3101C6.84699 15.0794 7.23535 15.6153 7.52975 15.9887C8.01965 16.6099 8.7331 16.6099 9.22303 15.9887C9.51743 15.6153 9.90576 15.0794 10.4139 14.3101C10.5408 14.118 10.6584 13.9368 10.7667 13.7664C11.7237 13.6952 12.6052 13.5938 13.0533 13.5046C14.4157 13.2402 15.7327 11.9956 16.0336 10.6368C16.2048 9.8115 16.3733 8.68939 16.3757 7.15735C16.3718 5.62521 16.2033 4.50342 16.0321 3.6782L16.032 3.67822ZM10.3623 3.77197L10.6629 3.3576V3.35771C10.7842 3.19612 11.0125 3.16185 11.176 3.28048C11.3395 3.39912 11.3776 3.627 11.2615 3.79227L10.961 4.20541C10.904 4.28654 10.8169 4.34156 10.719 4.35785C10.6213 4.37426 10.5209 4.3506 10.4407 4.29234C10.3605 4.23409 10.307 4.14604 10.2922 4.04794C10.2774 3.94996 10.3026 3.85008 10.3622 3.77073L10.3623 3.77197ZM5.61899 3.27423C5.69833 3.21654 5.79732 3.19277 5.89419 3.20817C5.99105 3.22346 6.07787 3.27669 6.13546 3.35615L6.43766 3.77074C6.55774 3.93647 6.52068 4.16802 6.35497 4.2881C6.18936 4.40807 5.9578 4.37113 5.83773 4.20541L5.53687 3.7907C5.41702 3.62542 5.45371 3.3942 5.61899 3.27423ZM4.85566 8.64266L4.36631 8.80113C4.32948 8.81296 4.29098 8.8191 4.25225 8.81921C4.0699 8.81954 3.91457 8.68697 3.88611 8.50695C3.85777 8.32694 3.96468 8.15295 4.13821 8.09704L4.62791 7.93857L4.6278 7.93868C4.8222 7.87574 5.03087 7.98231 5.09373 8.17672C5.15667 8.37112 5.05009 8.57969 4.85569 8.64265L4.85566 8.64266ZM8.7693 11.4621C8.7693 11.6664 8.60357 11.8321 8.39924 11.8321C8.19491 11.8321 8.02931 11.6664 8.02931 11.4621V10.9746C8.02931 10.7703 8.19492 10.6047 8.39924 10.6047C8.60358 10.6047 8.7693 10.7703 8.7693 10.9746V11.4621ZM10.7809 8.02751C10.7809 8.58372 10.7686 9.13948 10.7438 9.69489C10.7273 10.0346 10.3832 10.3054 10.0801 10.2077C9.58263 10.0476 9.07465 9.86988 8.55838 9.68149V9.68138C8.45471 9.64333 8.34099 9.64333 8.23744 9.68138C7.7212 9.86887 7.21319 10.0476 6.71604 10.2076C6.41295 10.3053 6.06855 10.0345 6.05204 9.69478C6.02805 9.13937 6.01577 8.5835 6.01521 8.02706L6.0151 8.02717C6.01465 7.91345 5.9756 7.80341 5.90451 7.71468C5.54797 7.26694 5.19452 6.82792 4.85303 6.40227C4.64245 6.14292 4.78831 5.76046 5.12611 5.65233C5.67572 5.4798 6.22412 5.30424 6.76847 5.1314C6.8784 5.09636 6.9737 5.02594 7.03943 4.93119C7.36874 4.45712 7.69406 3.98038 8.00808 3.50631C8.20025 3.21447 8.59743 3.21447 8.78927 3.50631C9.10175 3.98038 9.42761 4.45712 9.75792 4.93119C9.82365 5.02594 9.91884 5.09636 10.0288 5.1314C10.5733 5.30415 11.1224 5.4798 11.6715 5.65233C12.0089 5.7598 12.1549 6.14223 11.9442 6.40227C11.6027 6.82658 11.2493 7.26591 10.8931 7.71468C10.8212 7.80318 10.7817 7.91343 10.7809 8.02748L10.7809 8.02751ZM12.897 8.56307C12.8669 8.65647 12.8008 8.73404 12.7133 8.77868C12.626 8.82332 12.5244 8.83124 12.4311 8.80088L11.943 8.64275C11.8497 8.6125 11.7721 8.54644 11.7275 8.45895C11.6829 8.37156 11.6748 8.27001 11.7051 8.17671C11.768 7.98231 11.9767 7.87574 12.1711 7.93879L12.6601 8.09726V8.09715C12.8543 8.16031 12.9607 8.36866 12.8982 8.56308L12.897 8.56307Z" fill="#001CB1"/>
</svg>
