<svg width="10" height="11" viewBox="0 0 10 11" fill="none" xmlns="http://www.w3.org/2000/svg">
<path fill-rule="evenodd" clip-rule="evenodd" d="M4.83837 10.8994L8.00572 7.58815C8.78935 6.81263 9.27 5.76722 9.27 4.61767C9.27 2.22805 7.19326 0.28833 4.635 0.28833C2.07674 0.28833 0 2.22812 0 4.61767C0 5.76727 0.48063 6.81257 1.26428 7.58815L4.43163 10.8994C4.48339 10.9537 4.55734 10.9845 4.63503 10.9845C4.71271 10.9845 4.78666 10.9537 4.83842 10.8994H4.83837ZM4.63497 2.83511C3.58178 2.83511 2.72638 3.63401 2.72638 4.61775C2.72638 5.60159 3.58178 6.40048 4.63497 6.40048C5.68817 6.40048 6.54357 5.60159 6.54357 4.61775C6.54357 3.63401 5.68817 2.83511 4.63497 2.83511Z" fill="black"/>
</svg>
