<svg width="24" height="21" viewBox="0 0 24 21" fill="none" xmlns="http://www.w3.org/2000/svg">
<path d="M12 19.6363C17.25 16.0888 22.5 12.1363 22.5 6.88626C22.502 6.19627 22.3675 5.51269 22.1044 4.87483C21.8413 4.23698 21.4546 3.65744 20.9667 3.16954C20.4788 2.68163 19.8993 2.295 19.2614 2.03186C18.6236 1.76873 17.94 1.63428 17.25 1.63626C15.9 1.63626 14.565 2.14626 13.5375 3.17376L12 4.71126L10.4625 3.17376C9.976 2.68441 9.39754 2.29606 8.76041 2.03106C8.12328 1.76606 7.44005 1.62964 6.75 1.62964C6.05996 1.62964 5.37673 1.76606 4.7396 2.03106C4.10247 2.29606 3.52401 2.68441 3.0375 3.17376C2.54934 3.66081 2.16222 4.23951 1.89837 4.87662C1.63452 5.51372 1.49914 6.19668 1.5 6.88626C1.5 12.1363 6.75 16.0888 12 19.6363Z" fill="black" fill-opacity="0.5" stroke="white" stroke-width="1.5"/>
</svg>
